<?xml version="1.0" encoding="UTF-8"?>
<!DOCTYPE svg  PUBLIC '-//W3C//DTD SVG 20010904//EN'  'http://www.w3.org/TR/2001/REC-SVG-20010904/DTD/svg10.dtd'>
<svg width="400pt" height="400pt" version="1.0" viewBox="0 0 400 400" xmlns="http://www.w3.org/2000/svg">
<svg width="500" height="500" xmlns="http://www.w3.org/2000/svg">
<circle cx="200" cy="200" r="200" fill="#DAFF01"/>
</svg>
<g transform="translate(0 400) scale(.1 -.1)" fill="#2D291B">
<path d="m1395 2573c-231-73-558-177-680-215-156-49-154-48-180-93-29-49-32-75-8-75 10 0 76-14 148-31 279-66 381-89 405-91 14-2 24-7 23-12-1-4-102-68-225-142l-222-133-28 26-27 26-11-27c-5-15-10-33-10-39 0-7-14-57-30-111-17-55-29-101-27-103 2-1 145 82 318 186l314 189 56 109 56 108-66 18c-36 9-127 30-201 46s-145 34-158 38c-19 7 32 27 265 100l288 92 22-25c12-13 24-24 27-24 5 0 127 233 123 236-1 0-78-23-172-53z"/>
<path d="m2545 2453c-76-5-469-44-472-46-1-1 21-27 49-56 47-50 52-53 64-36 7 10 15 21 16 26 3 7 140 23 281 32l68 5-34-42c-121-150-147-185-147-196 0-7 41-91 91-186l91-174 46 51c56 61 59 69 35 69-13 0-34 32-76 113-32 61-57 115-57 118s43 59 95 124l94 119-33 41c-36 43-36 43-111 38z"/>
<path d="m3440 2383c-145-14-143-13-124-34 16-18 16-21-13-57-16-20-52-66-78-101l-49-64-156 166 20 22c11 12 18 24 15 26-3 3-28 2-57-2s-74-8-100-8c-27-1-48-4-48-7s21-28 48-56c54-58 47-50 135-149 37-42 67-79 67-82s-65-87-145-188c-80-100-143-184-141-186 8-8 169 36 177 49 20 32 185 237 191 237 4 1 52-49 105-110l98-111 67 74c38 40 68 76 68 80s-28 5-62 3l-63-5-74 80-73 79 131 166c72 91 131 170 131 175 0 6-8 9-17 8-10 0-34-3-53-5z"/>
<path d="m1818 2323c-62-4-66-8-44-39 13-17 7-34-70-183-48-94-82-171-79-181 3-9 20-30 38-48l33-32 82 50c46 28 85 50 88 50 2 0-32-72-76-161-60-118-76-159-63-155 10 3 40 10 66 15 27 5 52 13 56 17 10 11 311 600 311 608 0 6-79 0-148-10-30-5-31-6-18-25 12-18 11-25-7-62-47-98-61-113-127-131-34-10-63-16-65-14s30 70 71 151 74 149 74 152c0 5-9 5-122-2z"/>
<path d="m2708 2254-106-34-21-69-21-70 37-76 38-77 100 8c55 4 111 8 125 9s45 3 70 4c41 1 49 5 78 43 18 23 32 45 32 50 0 8-73 90-165 184l-60 62-107-34zm134-148 58-64-88-6c-48-4-102-8-120-11l-33-4 7 37c12 66 21 79 66 95 24 9 45 16 48 16 3 1 31-28 62-63z"/>
<path d="m2242 2273c-43-4-43-5-27-23 17-19 15-25-48-147-56-109-69-128-91-131-14-2-26-6-26-10s25-34 54-67l53-59 109 214c60 118 111 218 112 223 4 7-54 7-136 0z"/>
<path d="m1490 2209c-69-5-130-11-137-13-6-3-46-73-88-156l-76-151 53-59c29-33 54-60 56-60 3 0 64 36 137 81 114 69 135 86 150 120 10 22 16 41 14 44-3 2-61-14-129-36-69-21-126-39-127-39-2 0 15 33 36 74s40 79 43 86c2 6 41 15 88 20 79 8 87 7 107-13 13-11 24-19 26-16 2 2 18 32 36 67l32 62-48-1c-26-1-104-6-173-10z"/>
</g>
</svg>
