<svg id="Layer_1" xmlns="http://www.w3.org/2000/svg" x="0" y="0" viewBox="0 0 600 600" xml:space="preserve" theme="[object Object]"><style>.st3{fill:#fdfefe}.st4{fill:#ba9d93}.st5{fill-rule:evenodd;clip-rule:evenodd;fill:#ba9d93}.st7,.st9{fill-rule:evenodd;clip-rule:evenodd}.st10,.st9{fill:#fff}</style><g id="Layer_2_00000088814685506851870240000015950599998114990989_"><g id="Feet"><path d="M169.7 432.1c28.3 0 51.5 23.3 51.5 51.5s-23.3 51.5-51.5 51.5-51.5-23.3-51.5-51.5 23.2-51.5 51.5-51.5zM425.8 432.1c28.3 0 51.5 23.3 51.5 51.5s-23.3 51.5-51.5 51.5-51.5-23.3-51.5-51.5 23.2-51.5 51.5-51.5z"></path></g><g id="Body"><path d="M26.7 66.8h546.2c9.8 0 17.7 7.9 17.7 17.7v273.3H9V84.6c0-9.8 7.9-17.8 17.7-17.8z" style="fill: rgb(232, 196, 184);"></path><path d="M9 357.4h581.6v113.7c0 8.4-6.9 15.3-15.3 15.3h-551c-8.4 0-15.3-6.9-15.3-15.3V357.4z" style="fill: rgb(54, 52, 52);"></path></g><path d="M229.4 262.8s33.5 19.4 66.3 19.4c33.5 0 66.3-19.4 66.3-19.4" id="Smile" style="fill: none; stroke: rgb(0, 0, 0); stroke-width: 6.8265; stroke-linecap: round; stroke-linejoin: round; stroke-miterlimit: 2.0408;"></path><g id="Eyes"><path d="M417.1 132.4c26.5 0 48 26.4 48 59.1s-21.4 59.1-48 59.1-48-26.4-48-59.1 21.5-59.1 48-59.1zM175.3 132.4c26.5 0 48 26.4 48 59.1s-21.4 59.1-48 59.1-48-26.4-48-59.1 21.5-59.1 48-59.1z"></path><path class="st3" d="M422.7 210.7c4.2 0 7.7 3.5 7.7 7.7s-3.5 7.7-7.7 7.7-7.7-3.5-7.7-7.7 3.5-7.7 7.7-7.7zM418.2 159.7c9.5 0 17.3 7.8 17.3 17.3s-7.8 17.3-17.3 17.3-17.3-7.8-17.3-17.3c-.1-9.5 7.7-17.3 17.3-17.3zM179.9 210.7c4.2 0 7.7 3.5 7.7 7.7s-3.5 7.7-7.7 7.7-7.7-3.5-7.7-7.7 3.5-7.7 7.7-7.7zM175.3 159.7c9.5 0 17.3 7.8 17.3 17.3s-7.8 17.3-17.3 17.3S158 186.5 158 177c-.1-9.5 7.8-17.3 17.3-17.3z"></path></g><g id="Pins"><path class="st4" d="M12.6 276h17.5c5.8 0 10.5 6.9 10.5 15.3V324c0 8.4-4.7 15.3-10.5 15.3H12.6C6.7 339.3 2 332.4 2 324v-32.7c0-8.4 4.7-15.3 10.6-15.3zM12.6 190.3h17.5c5.8 0 10.5 6.9 10.5 15.3v32.7c0 8.4-4.7 15.3-10.5 15.3H12.6c-5.8 0-10.5-6.9-10.5-15.3v-32.7c-.1-8.4 4.6-15.3 10.5-15.3zM12.6 102.6h17.5c5.8 0 10.5 6.9 10.5 15.3v32.7c0 8.4-4.7 15.3-10.5 15.3H12.6C6.7 165.8 2 159 2 150.5v-32.7c0-8.4 4.7-15.2 10.6-15.2zM569.6 276h17.5c5.8 0 10.5 6.9 10.5 15.3V324c0 8.4-4.7 15.3-10.5 15.3h-17.5c-5.8 0-10.5-6.9-10.5-15.3v-32.7c0-8.4 4.7-15.3 10.5-15.3zM569.6 190.3h17.5c5.8 0 10.5 6.9 10.5 15.3v32.7c0 8.4-4.7 15.3-10.5 15.3h-17.5c-5.8 0-10.5-6.9-10.5-15.3v-32.7c0-8.4 4.7-15.3 10.5-15.3zM569.6 102.6h17.5c5.8 0 10.5 6.9 10.5 15.3v32.7c0 8.4-4.7 15.3-10.5 15.3h-17.5c-5.8 0-10.5-6.9-10.5-15.3v-32.7c0-8.5 4.7-15.3 10.5-15.3z"></path></g><g id="Cheeks"><g id="Layer_8"><ellipse transform="rotate(120 89.724 277.697)" class="st5" cx="68.5" cy="243.9" rx="12.9" ry="29.3"></ellipse><ellipse transform="rotate(150 447.814 278.705)" class="st5" cx="430.5" cy="271.6" rx="29.3" ry="12.9"></ellipse></g></g><g id="Bowties"><path class="st4" d="m293.7 356.6 73.5-33.7v67.3l-73.5-33.6zM293.7 356.6l-73.5 33.7V323l73.5 33.6z"></path></g></g><g id="Layer2" style="opacity: 0.15;"><path class="st7" d="M6.7 105.2c2.5-2.6 5.8-2.5 5.8-2.5v63.2s-3.9.4-7.1-4c-.7-.7-3.4-5.1-3.4-11.3v-32.4c0-7 2.7-11 4.7-13z"></path><path d="M112.4 486.3H24c-13 0-14.8-14.5-14.8-14.5S9 332.7 9 353.4c0 20.8 79.5 132.9 103.4 132.9z" style="fill-rule: evenodd; clip-rule: evenodd; fill: rgb(24, 0, 0);"></path><path class="st9" d="M35.9 105.1c-2.5-2.6-5.8-2.5-5.8-2.5v63.2s3.9.4 7.1-4c.7-.7 3.4-5.1 3.4-11.3v-32.4c0-7-2.8-11-4.7-13z"></path><path class="st7" d="M6.7 192.9c2.5-2.6 5.8-2.5 5.8-2.5v63.2s-3.9.4-7.1-4c-.7-.7-3.4-5.1-3.4-11.3v-32.4c0-7 2.7-11 4.7-13z"></path><path class="st9" d="M35.9 192.8c-2.5-2.6-5.8-2.5-5.8-2.5v63.2s3.9.4 7.1-4c.7-.7 3.4-5.1 3.4-11.3v-32.4c0-7-2.8-11-4.7-13z"></path><path class="st7" d="M6.7 278.6c2.5-2.6 5.8-2.5 5.8-2.5v63.2s-3.9.4-7.1-4c-.7-.7-3.4-5.1-3.4-11.3v-32.4c0-6.9 2.7-10.9 4.7-13z"></path><path class="st9" d="M35.9 278.5c-2.5-2.6-5.8-2.5-5.8-2.5v63.2s3.9.4 7.1-4c.7-.7 3.4-5.1 3.4-11.3v-32.4c0-7-2.8-11-4.7-13z"></path><path class="st7" d="M563.7 105.2c2.5-2.6 5.8-2.5 5.8-2.5v63.2s-3.9.4-7.1-4c-.7-.7-3.4-5.1-3.4-11.3v-32.4c0-7 2.7-11 4.7-13z"></path><path class="st9" d="M592.9 105.1c-2.5-2.6-5.8-2.5-5.8-2.5v63.2s3.9.4 7.1-4c.7-.7 3.4-5.1 3.4-11.3v-32.4c0-7-2.7-11-4.7-13z"></path><path class="st7" d="M563.7 192.9c2.5-2.6 5.8-2.5 5.8-2.5v63.2s-3.9.4-7.1-4c-.7-.7-3.4-5.1-3.4-11.3v-32.4c0-7 2.7-11 4.7-13z"></path><path class="st9" d="M592.9 192.8c-2.5-2.6-5.8-2.5-5.8-2.5v63.2s3.9.4 7.1-4c.7-.7 3.4-5.1 3.4-11.3v-32.4c0-7-2.7-11-4.7-13z"></path><path class="st7" d="M563.7 278.6c2.5-2.6 5.8-2.5 5.8-2.5v63.2s-3.9.4-7.1-4c-.7-.7-3.4-5.1-3.4-11.3v-32.4c0-6.9 2.7-10.9 4.7-13z"></path><path class="st9" d="M592.9 278.5c-2.5-2.6-5.8-2.5-5.8-2.5v63.2s3.9.4 7.1-4c.7-.7 3.4-5.1 3.4-11.3v-32.4c0-7-2.7-11-4.7-13z"></path><path class="st10" d="M220.2 323.1v34.2l73.4-.6zM293.7 356.6l73.5-33.6v34.3"></path></g></svg>
