<?xml version="1.0" encoding="UTF-8"?>
<svg theme="[object Object]" viewBox="0 0 600 600" xml:space="preserve" xmlns="http://www.w3.org/2000/svg"><style>.st3{fill:#fdfefe}.st4{fill:#ba9d93}.st5{fill-rule:evenodd;clip-rule:evenodd;fill:#ba9d93}.st7,.st9{fill-rule:evenodd;clip-rule:evenodd}.st10,.st9{fill:#fff}</style><path d="m169.7 432.1c28.3 0 51.5 23.3 51.5 51.5s-23.3 51.5-51.5 51.5-51.5-23.3-51.5-51.5 23.2-51.5 51.5-51.5zm256.1 0c28.3 0 51.5 23.3 51.5 51.5s-23.3 51.5-51.5 51.5-51.5-23.3-51.5-51.5 23.2-51.5 51.5-51.5z"/><path d="M26.7 66.8h546.2c9.8 0 17.7 7.9 17.7 17.7v273.3H9V84.6c0-9.8 7.9-17.8 17.7-17.8z" fill="#e8c4b8"/><path d="M9 357.4h581.6v113.7c0 8.4-6.9 15.3-15.3 15.3h-551c-8.4 0-15.3-6.9-15.3-15.3V357.4z" fill="#363434"/><path d="m229.4 262.8s33.5 19.4 66.3 19.4c33.5 0 66.3-19.4 66.3-19.4" fill="none" stroke="#000" stroke-linecap="round" stroke-linejoin="round" stroke-miterlimit="2.0408" stroke-width="6.8265"/><path d="m417.1 132.4c26.5 0 48 26.4 48 59.1s-21.4 59.1-48 59.1-48-26.4-48-59.1 21.5-59.1 48-59.1zm-241.8 0c26.5 0 48 26.4 48 59.1s-21.4 59.1-48 59.1-48-26.4-48-59.1 21.5-59.1 48-59.1z"/><path class="st3" d="m422.7 210.7c4.2 0 7.7 3.5 7.7 7.7s-3.5 7.7-7.7 7.7-7.7-3.5-7.7-7.7 3.5-7.7 7.7-7.7zm-4.5-51c9.5 0 17.3 7.8 17.3 17.3s-7.8 17.3-17.3 17.3-17.3-7.8-17.3-17.3c-0.1-9.5 7.7-17.3 17.3-17.3zm-238.3 51c4.2 0 7.7 3.5 7.7 7.7s-3.5 7.7-7.7 7.7-7.7-3.5-7.7-7.7 3.5-7.7 7.7-7.7zm-4.6-51c9.5 0 17.3 7.8 17.3 17.3s-7.8 17.3-17.3 17.3-17.3-7.8-17.3-17.3c-0.1-9.5 7.8-17.3 17.3-17.3z"/><path class="st4" d="m12.6 276h17.5c5.8 0 10.5 6.9 10.5 15.3v32.7c0 8.4-4.7 15.3-10.5 15.3h-17.5c-5.9 0-10.6-6.9-10.6-15.3v-32.7c0-8.4 4.7-15.3 10.6-15.3zm0-85.7h17.5c5.8 0 10.5 6.9 10.5 15.3v32.7c0 8.4-4.7 15.3-10.5 15.3h-17.5c-5.8 0-10.5-6.9-10.5-15.3v-32.7c-0.1-8.4 4.6-15.3 10.5-15.3zm0-87.7h17.5c5.8 0 10.5 6.9 10.5 15.3v32.7c0 8.4-4.7 15.3-10.5 15.3h-17.5c-5.9-0.1-10.6-6.9-10.6-15.4v-32.7c0-8.4 4.7-15.2 10.6-15.2zm557 173.4h17.5c5.8 0 10.5 6.9 10.5 15.3v32.7c0 8.4-4.7 15.3-10.5 15.3h-17.5c-5.8 0-10.5-6.9-10.5-15.3v-32.7c0-8.4 4.7-15.3 10.5-15.3zm0-85.7h17.5c5.8 0 10.5 6.9 10.5 15.3v32.7c0 8.4-4.7 15.3-10.5 15.3h-17.5c-5.8 0-10.5-6.9-10.5-15.3v-32.7c0-8.4 4.7-15.3 10.5-15.3zm0-87.7h17.5c5.8 0 10.5 6.9 10.5 15.3v32.7c0 8.4-4.7 15.3-10.5 15.3h-17.5c-5.8 0-10.5-6.9-10.5-15.3v-32.7c0-8.5 4.7-15.3 10.5-15.3z"/><ellipse class="st5" transform="rotate(120 89.724 277.7)" cx="68.5" cy="243.9" rx="12.9" ry="29.3"/><ellipse class="st5" transform="rotate(150 447.81 278.7)" cx="430.5" cy="271.6" rx="29.3" ry="12.9"/><path class="st4" d="m293.7 356.6 73.5-33.7v67.3l-73.5-33.6zm0 0-73.5 33.7v-67.3l73.5 33.6z"/><g opacity=".15"><path class="st7" d="M6.7 105.2c2.5-2.6 5.8-2.5 5.8-2.5v63.2s-3.9.4-7.1-4c-.7-.7-3.4-5.1-3.4-11.3v-32.4c0-7 2.7-11 4.7-13z"/><path d="M112.4 486.3H24c-13 0-14.8-14.5-14.8-14.5S9 332.7 9 353.4c0 20.8 79.5 132.9 103.4 132.9z" clip-rule="evenodd" fill="#180000" fill-rule="evenodd"/><path class="st9" d="M35.9 105.1c-2.5-2.6-5.8-2.5-5.8-2.5v63.2s3.9.4 7.1-4c.7-.7 3.4-5.1 3.4-11.3v-32.4c0-7-2.8-11-4.7-13z"/><path class="st7" d="M6.7 192.9c2.5-2.6 5.8-2.5 5.8-2.5v63.2s-3.9.4-7.1-4c-.7-.7-3.4-5.1-3.4-11.3v-32.4c0-7 2.7-11 4.7-13z"/><path class="st9" d="M35.9 192.8c-2.5-2.6-5.8-2.5-5.8-2.5v63.2s3.9.4 7.1-4c.7-.7 3.4-5.1 3.4-11.3v-32.4c0-7-2.8-11-4.7-13z"/><path class="st7" d="M6.7 278.6c2.5-2.6 5.8-2.5 5.8-2.5v63.2s-3.9.4-7.1-4c-.7-.7-3.4-5.1-3.4-11.3v-32.4c0-6.9 2.7-10.9 4.7-13z"/><path class="st9" d="M35.9 278.5c-2.5-2.6-5.8-2.5-5.8-2.5v63.2s3.9.4 7.1-4c.7-.7 3.4-5.1 3.4-11.3v-32.4c0-7-2.8-11-4.7-13z"/><path class="st7" d="M563.7 105.2c2.5-2.6 5.8-2.5 5.8-2.5v63.2s-3.9.4-7.1-4c-.7-.7-3.4-5.1-3.4-11.3v-32.4c0-7 2.7-11 4.7-13z"/><path class="st9" d="M592.9 105.1c-2.5-2.6-5.8-2.5-5.8-2.5v63.2s3.9.4 7.1-4c.7-.7 3.4-5.1 3.4-11.3v-32.4c0-7-2.7-11-4.7-13z"/><path class="st7" d="M563.7 192.9c2.5-2.6 5.8-2.5 5.8-2.5v63.2s-3.9.4-7.1-4c-.7-.7-3.4-5.1-3.4-11.3v-32.4c0-7 2.7-11 4.7-13z"/><path class="st9" d="M592.9 192.8c-2.5-2.6-5.8-2.5-5.8-2.5v63.2s3.9.4 7.1-4c.7-.7 3.4-5.1 3.4-11.3v-32.4c0-7-2.7-11-4.7-13z"/><path class="st7" d="M563.7 278.6c2.5-2.6 5.8-2.5 5.8-2.5v63.2s-3.9.4-7.1-4c-.7-.7-3.4-5.1-3.4-11.3v-32.4c0-6.9 2.7-10.9 4.7-13z"/><path class="st9" d="M592.9 278.5c-2.5-2.6-5.8-2.5-5.8-2.5v63.2s3.9.4 7.1-4c.7-.7 3.4-5.1 3.4-11.3v-32.4c0-7-2.7-11-4.7-13z"/><path class="st10" d="m220.2 323.1v34.2l73.4-0.6zm73.5 33.5 73.5-33.6v34.3"/></g></svg>
