<?xml version="1.0" encoding="UTF-8"?>
<svg viewBox="0.2 4.5 20.6 16" xmlns="http://www.w3.org/2000/svg">
<path d="m5.8666 14.649-5.3197 5.3057c-0.20279 0.2022-0.058337 0.5458 0.22779 0.5458h4.0641c0.16945 0 0.33335-0.0665 0.4528-0.1884l3.1279-3.1197c0.25002-0.2493 0.25002-0.6538 0-0.906l-1.6445-1.6401c-0.25002-0.2494-0.65559-0.2494-0.90838 0v0.0027z" fill="#fff"/>
<path d="m8.4648 12.047c-0.25001 0.2493-0.25001 0.6538 0 0.906l2.1028 2.0973 0.0056-0.0056 5.2808 5.2668c0.1195 0.1192 0.2834 0.1884 0.4528 0.1884h4.0641c0.2861 0 0.4278-0.3435 0.2278-0.5458l-7.4726-7.4527 7.4726-7.4556c0.2028-0.20225 0.0583-0.5458-0.2278-0.5458h-4.0641c-0.1694 0-0.3333 0.06649-0.4528 0.1884l-5.2808 5.2668" fill="#fff"/>
<path d="m0.54725 16.555 11.539-11.509c0.2028-0.20225 0.0584-0.5458-0.225-0.5458h-4.0641c-0.16946 0-0.33336 0.06649-0.45281 0.1884l-7.1559 7.1342c-0.11945 0.1191-0.1889 0.2826-0.1889 0.4516v4.0533c0 0.2854 0.34446 0.4294 0.54725 0.2272z" fill="#fff"/>
</svg>
