<?xml version="1.0" encoding="UTF-8"?>
<svg viewBox="0 0 600 600" xmlns="http://www.w3.org/2000/svg">
<circle cx="169.7" cy="483.6" r="51.5"/>
<circle cx="425.8" cy="483.6" r="51.5"/>
<rect x="9" y="66.8" width="582" height="273.3" fill="#e8c4b8"/>
<rect x="9" y="357.4" width="582" height="113.7" fill="#363434"/>
<path d="m229.4 262.8s33.5 19.4 66.3 19.4c33.5 0 66.3-19.4 66.3-19.4" fill="none" stroke="#000" stroke-linecap="round" stroke-linejoin="round" stroke-width="6.8"/>
<ellipse cx="417.1" cy="191.5" rx="48" ry="59.1"/>
<ellipse cx="175.3" cy="191.5" rx="48" ry="59.1"/>
<circle cx="422.7" cy="218.4" r="7.7" fill="#fff"/>
<circle cx="418.2" cy="159.7" r="17.3" fill="#fff"/>
<circle cx="178.2" cy="218.4" r="7.7" fill="#fff"/>
<circle cx="173.6" cy="159.7" r="17.3" fill="#fff"/>
<path d="m12.6 276h17.5c5.8 0 10.5 6.9 10.5 15.3v32.7c0 8.4-4.7 15.3-10.5 15.3h-17.5c-5.9 0-10.6-6.9-10.6-15.3v-32.7c0-8.4 4.7-15.3 10.6-15.3z" fill="#ba9d93"/>
<path d="m12.6 190.3h17.5c5.8 0 10.5 6.9 10.5 15.3v32.7c0 8.4-4.7 15.3-10.5 15.3h-17.5c-5.8 0-10.5-6.9-10.5-15.3v-32.7c-0.1-8.4 4.6-15.3 10.5-15.3z" fill="#ba9d93"/>
<path d="m12.6 102.6h17.5c5.8 0 10.5 6.9 10.5 15.3v32.7c0 8.4-4.7 15.3-10.5 15.3h-17.5c-5.9-0.1-10.6-6.9-10.6-15.4v-32.7c0-8.4 4.7-15.2 10.6-15.2z" fill="#ba9d93"/>
<path d="m569.6 276h17.5c5.8 0 10.5 6.9 10.5 15.3v32.7c0 8.4-4.7 15.3-10.5 15.3h-17.5c-5.8 0-10.5-6.9-10.5-15.3v-32.7c0-8.4 4.7-15.3 10.5-15.3z" fill="#ba9d93"/>
<path d="m569.6 190.3h17.5c5.8 0 10.5 6.9 10.5 15.3v32.7c0 8.4-4.7 15.3-10.5 15.3h-17.5c-5.8 0-10.5-6.9-10.5-15.3v-32.7c0-8.4 4.7-15.3 10.5-15.3z" fill="#ba9d93"/>
<path d="m569.6 102.6h17.5c5.8 0 10.5 6.9 10.5 15.3v32.7c0 8.4-4.7 15.3-10.5 15.3h-17.5c-5.8 0-10.5-6.9-10.5-15.3v-32.7c0-8.5 4.7-15.3 10.5-15.3z" fill="#ba9d93"/>
<ellipse transform="rotate(120 89.724 277.7)" cx="68.5" cy="243.9" rx="12.9" ry="29.3" fill="#ba9d93"/>
<ellipse transform="rotate(150 447.81 278.7)" cx="430.5" cy="271.6" rx="29.3" ry="12.9" fill="#ba9d93"/>
<polygon points="293.7 356.6 367.2 322.9 367.2 390.2" fill="#ba9d93"/>
<polygon points="293.7 356.6 220.2 390.3 220.2 322.9" fill="#ba9d93"/>
</svg>
